HIERARCHY
ROOT root
{
	OFFSET	0	13.1	24.9
	CHANNELS 6  Xposition Yposition Zposition Xrotation Yrotation Zrotation
	JOINT spine_1
	{
		OFFSET	0	9.99999	0
		CHANNELS 3  Xrotation Yrotation Zrotation
		JOINT spine_2
		{
			OFFSET	0	112	-10
			CHANNELS 3  Xrotation Yrotation Zrotation
			JOINT spine_3
			{
				OFFSET	0	206.5	19.3
				CHANNELS 3  Xrotation Yrotation Zrotation
				JOINT spine_4
				{
					OFFSET	0	110.4	14.6
					CHANNELS 3  Xrotation Yrotation Zrotation
					JOINT neck_1
					{
						OFFSET	0	71.8	-50.3
						CHANNELS 3  Xrotation Yrotation Zrotation
						JOINT neck_2
						{
							OFFSET	0	86.2	-25.8
							CHANNELS 3  Xrotation Yrotation Zrotation
							JOINT head_ee
							{
								OFFSET	0	179.8	-8.7
								CHANNELS 3  Xrotation Yrotation Zrotation
								End Site
								{
									OFFSET	1	0	0
								}
							}
						}
					}
					JOINT left_clavicle
					{
						OFFSET	-43.2	22.4	-70.8
						CHANNELS 3  Xrotation Yrotation Zrotation
						JOINT left_shoulder
						{
							OFFSET	-93.9	-5.79999	48.7
							CHANNELS 3  Xrotation Yrotation Zrotation
							JOINT left_elbow
							{
								OFFSET	-291.4	-30.8	15.2
								CHANNELS 3  Xrotation Yrotation Zrotation
								JOINT left_lowarm_twist
								{
									OFFSET	-110.7	-3.89999	13.6
									CHANNELS 3  Xrotation Yrotation Zrotation
									JOINT left_hand
									{
										OFFSET	-110.7	-3.89999	13.6
										CHANNELS 3  Xrotation Yrotation Zrotation
										JOINT left_ee
										{
											OFFSET	-80.8	-5.10001	12.1
											CHANNELS 3  Xrotation Yrotation Zrotation
											End Site
											{
												OFFSET	1	0	0
											}
										}
									}
								}
							}
						}
					}
					JOINT right_clavicle
					{
						OFFSET	43.2	22.4	-70.8
						CHANNELS 3  Xrotation Yrotation Zrotation
						JOINT right_shoulder
						{
							OFFSET	93.9	-5.79999	48.7
							CHANNELS 3  Xrotation Yrotation Zrotation
							JOINT right_elbow
							{
								OFFSET	291.4	-30.8	15.2
								CHANNELS 3  Xrotation Yrotation Zrotation
								JOINT right_lowarm_twist
								{
									OFFSET	110.7	-3.89999	13.6
									CHANNELS 3  Xrotation Yrotation Zrotation
									JOINT right_hand
									{
										OFFSET	110.7	-3.89999	13.6
										CHANNELS 3  Xrotation Yrotation Zrotation
										JOINT right_ee
										{
											OFFSET	80.8	-5.10001	12.1
											CHANNELS 3  Xrotation Yrotation Zrotation
											End Site
											{
												OFFSET	1	0	0
											}
										}
									}
								}
							}
						}
					}
				}
			}
		}
	}
	JOINT left_hip
	{
		OFFSET	-82.8	-127.5	0.300001
		CHANNELS 3  Xrotation Yrotation Zrotation
		JOINT left_knee
		{
			OFFSET	-28.2	-396.7	2.2
			CHANNELS 3  Xrotation Yrotation Zrotation
			JOINT left_ankle
			{
				OFFSET	-11.7	-411.3	35.4
				CHANNELS 3  Xrotation Yrotation Zrotation
				JOINT left_toes
				{
					OFFSET	0	-60	-88.6
					CHANNELS 3  Xrotation Yrotation Zrotation
					JOINT left_foot_ee
					{
						OFFSET	-22.5	-16.5	-42.2
						CHANNELS 3  Xrotation Yrotation Zrotation
						End Site
						{
							OFFSET	1	0	0
						}
					}
				}
			}
		}
	}
	JOINT right_hip
	{
		OFFSET	82.8	-127.5	0.300001
		CHANNELS 3  Xrotation Yrotation Zrotation
		JOINT right_knee
		{
			OFFSET	28.2	-396.7	2.2
			CHANNELS 3  Xrotation Yrotation Zrotation
			JOINT right_ankle
			{
				OFFSET	11.7	-411.3	35.4
				CHANNELS 3  Xrotation Yrotation Zrotation
				JOINT right_toes
				{
					OFFSET	0	-60	-88.6
					CHANNELS 3  Xrotation Yrotation Zrotation
					JOINT right_foot_ee
					{
						OFFSET	22.5	-16.5	-42.2
						CHANNELS 3  Xrotation Yrotation Zrotation
						End Site
						{
							OFFSET	1	0	0
						}
					}
				}
			}
		}
	}
}
MOTION
Frames: 8
Frame Time: 0.02
3893.56 655.901 -335.585 -40.9245 30.3312 19.4281 13.8932 0.630086 4.37651 13.9038 0.350597 4.40765 13.8953 0.487306 4.39466 13.8703 1.17462 4.26297 -20.7644 4.91242 -8.19323 -20.8658 13.527 -5.48525 -0.0 0.0 -0.0 -2.71975 14.4356 -2.70654 -12.1975 -43.4416 56.4156 0.991229 -26.1517 0.230231 21.3845 0.251433 -2.70429 -0.82928 -28.5807 -17.4985 -0.0 0.0 -0.0 8.96435 -12.7206 -16.6835 47.4631 -71.4963 -9.81913 0.317632 8.94212 -0.0248368 81.2899 3.98807 8.6808 -2.51276 -5.09219 14.5254 0.0 0.0 0.0 43.3443 31.7274 2.88572 -23.8099 0.230985 3.6203 38.5924 4.00081 -4.73478 -0.60388 0.0 0.0 -0.0 0.0 -0.0 65.6581 25.8997 -4.26976 -29.821 -0.0508801 -4.52482 30.8404 -25.2497 4.21007 -27.0599 0.0 0.0 0.0 0.0 0.0 
3894.58 659.095 -338.663 -41.0635 30.4955 20.2784 13.8774 0.469862 4.41976 13.8883 0.187952 4.44065 13.8669 0.323089 4.43289 13.841 1.01847 4.32659 -21.3233 4.66417 -8.34661 -21.409 13.0458 -5.68736 -0.0 0.0 -0.0 -3.11498 12.1067 -3.80361 -10.8535 -43.5056 57.6039 1.00854 -26.5462 0.237915 20.5375 0.260783 -2.5965 -0.761966 -28.5766 -17.0522 -0.0 0.0 -0.0 9.46292 -15.4639 -17.239 45.8738 -69.5784 -10.384 0.333054 9.36876 -0.0272907 81.5294 4.01601 8.69362 -2.29683 -3.27623 13.9509 0.0 0.0 0.0 42.4432 35.5947 2.18341 -20.9927 0.282517 3.19112 39.1552 0.272606 -4.80061 -2.37661 0.0 0.0 -0.0 0.0 -0.0 67.9374 26.4273 -6.63994 -29.0654 -0.0787283 -4.4122 26.3453 -26.1158 3.69815 -24.6123 0.0 0.0 0.0 0.0 0.0 
3888.61 662.997 -342.36 -41.542 30.3706 21.3962 13.8827 0.733636 4.41891 13.8934 0.451249 4.45653 13.8923 0.589514 4.44039 13.8671 1.28275 4.29203 -21.2158 4.3325 -8.87486 -21.2584 12.6799 -6.33959 -0.0 0.0 -0.0 -2.48829 11.7736 -2.8042 -10.6515 -42.0181 56.4855 1.14927 -29.6525 0.304223 20.4234 0.261921 -2.58197 -0.987885 -28.3576 -18.466 -0.0 0.0 -0.0 9.24021 -18.1226 -16.5118 44.5519 -68.1554 -11.6387 0.304356 8.57405 -0.0228154 79.379 3.76713 8.57437 -2.11835 -1.41157 13.628 0.0 0.0 0.0 42.1189 35.0831 1.87235 -19.6215 0.29995 2.98145 38.2221 0.888512 -4.71367 -3.3103 0.0 0.0 -0.0 0.0 -0.0 69.2017 27.4477 -7.82218 -28.3533 -0.103606 -4.30575 20.9746 -25.5932 3.00654 -22.3507 0.0 0.0 0.0 0.0 0.0 
3880.81 666.056 -348.571 -41.6806 29.6402 21.0429 14.0362 0.550413 4.49104 14.0474 0.26382 4.51689 14.0305 0.414389 4.50559 14.0039 1.12008 4.38402 -21.0414 5.01642 -9.12934 -21.1317 14.1486 -6.28622 -0.0 0.0 -0.0 -1.72158 13.2019 -1.28111 -15.1092 -37.0947 51.5256 1.53161 -37.1857 0.515259 13.773 0.278146 -1.73317 -0.503133 -28.6082 -15.3627 -0.0 0.0 -0.0 10.166 -18.1888 -18.0309 46.9536 -66.2759 -7.55855 0.249543 7.04711 -0.0153658 78.1928 3.63181 8.50463 -1.85084 2.71591 13.7134 0.0 0.0 0.0 39.997 39.3628 2.63482 -17.767 0.315534 2.69735 37.0036 -1.9137 -4.62552 -4.21991 0.0 0.0 -0.0 0.0 -0.0 69.5844 26.7215 -8.45346 -23.5588 -0.236434 -3.58215 12.8189 -24.6689 1.8856 -21.0823 0.0 0.0 0.0 0.0 0.0 
3861.95 668.024 -355.289 -41.2188 29.6741 20.6273 14.1463 0.783263 4.46585 14.1572 0.497798 4.50653 14.1586 0.658657 4.48588 14.1331 1.35819 4.32607 -21.7853 4.97578 -10.302 -21.8479 14.5148 -7.32932 -0.0 0.0 -0.0 -1.97071 15.4825 -1.31528 -11.2418 -37.6607 54.4001 1.39951 -34.7307 0.43767 10.4355 0.249164 -1.30792 0.314343 -28.6905 -10.0945 -0.0 0.0 -0.0 9.66871 -18.238 -17.1995 48.3454 -66.9217 -5.18192 0.306077 8.62181 -0.0230727 76.1568 3.40299 8.37846 -1.32237 4.48274 10.8702 0.0 0.0 0.0 36.1542 42.2012 4.47371 -16.6546 0.320468 2.52674 34.2974 -1.00653 -4.35891 -3.35323 0.0 0.0 -0.0 0.0 -0.0 67.9181 23.0425 -7.21441 -18.787 -0.308101 -2.85366 4.4585 -16.889 0.652372 -22.5634 0.0 0.0 0.0 0.0 0.0 
3844.71 666.185 -362.015 -40.1181 30.5757 20.2213 14.2216 0.862164 4.38028 14.2321 0.581969 4.42614 14.2405 0.74641 4.40144 14.2163 1.43155 4.22884 -24.0624 4.89309 -11.0824 -24.1229 14.2834 -7.90262 -0.0 0.0 -0.0 -2.18184 15.1386 -1.71127 -14.6462 -40.4346 52.3206 1.62768 -38.8763 0.574447 13.8669 0.278602 -1.74515 -0.357183 -28.144 -14.2241 -0.0 0.0 -0.0 9.66299 -17.6076 -17.2832 48.9983 -66.1313 -2.42157 0.318476 8.96548 -0.0249681 78.4538 3.66146 8.52022 -1.20446 6.50265 10.9516 0.0 0.0 0.0 33.7338 43.7092 5.04045 -17.9112 0.314652 2.71945 33.8456 -0.370893 -4.30903 -3.75351 0.0 0.0 -0.0 0.0 -0.0 69.5577 26.1313 -9.02423 -18.2572 -0.312309 -2.77248 -5.16249 -15.3096 -0.769036 -22.9165 0.0 0.0 0.0 0.0 0.0 
3822.4 665.59 -359.809 -38.4474 28.756 17.2048 14.3247 0.757157 4.35029 14.3351 0.479076 4.38955 14.3355 0.649164 4.36768 14.3113 1.3302 4.21081 -24.808 3.34843 -10.8107 -24.7333 11.0427 -8.38273 -0.0 0.0 -0.0 -2.50293 19.2238 -1.48728 -11.9518 -36.0352 54.3445 1.78499 -41.4803 0.675967 11.7757 0.263778 -1.47847 0.0651356 -24.3012 -9.88152 -0.0 0.0 -0.0 9.6043 -16.7765 -17.3035 47.7358 -64.2518 -4.31214 0.276356 7.79544 -0.0188291 75.8805 3.37229 8.36071 -1.25045 15.2665 15.0347 0.0 0.0 0.0 24.6242 55.3058 11.5294 -13.3575 0.315627 2.02096 34.0588 -3.62206 -4.36314 -9.05978 0.0 0.0 -0.0 0.0 -0.0 68.8631 26.083 -8.80111 -17.6458 -0.316233 -2.67876 -7.53574 -10.5815 -1.12004 -24.0773 0.0 0.0 0.0 0.0 0.0 
3810.85 662.689 -368.052 -39.7849 30.4899 19.0945 14.4426 0.586027 4.14615 14.4521 0.321245 4.17497 14.4423 0.490377 4.15852 14.42 1.14045 4.02925 -23.3597 4.31634 -11.0933 -23.3515 13.316 -8.25124 -0.0 0.0 -0.0 -2.92147 20.2949 -1.90609 -13.2388 -38.5195 53.8378 1.97905 -44.427 0.808245 10.2297 0.246565 -1.28175 -0.653112 -23.9112 -14.493 -0.0 0.0 -0.0 9.1109 -17.8515 -16.3361 50.1741 -62.5597 -0.836743 0.223037 6.30497 -0.0122841 76.646 3.45756 8.40951 -0.671982 11.1611 9.31506 0.0 0.0 0.0 25.8686 52.0992 10.5613 -17.0367 0.319147 2.58534 35.1089 -0.314118 -4.43209 -7.21451 0.0 0.0 -0.0 0.0 -0.0 68.2469 25.21 -7.6233 -14.4474 -0.320448 -2.18812 -14.6841 -7.43363 -2.20106 -22.2347 0.0 0.0 0.0 0.0 0.0 
